<?xml version="1.0" encoding="UTF-8"?><svg id="Layer_2" xmlns="http://www.w3.org/2000/svg" width="257.63" height="103.8" viewBox="0 0 257.63 103.8"><defs><style>.cls-1{fill:none;stroke:#593921;stroke-miterlimit:10;}</style></defs><g id="Layer_1-2"><path class="cls-1" d="m136.98,29.35c-2.03-4.87-4.14-9.86-7.83-13.67-3.69-3.81-9.39-6.23-14.5-4.64-5.16,1.61-8.37,6.81-9.56,11.99-2.03,8.86.57,18.26,5.19,26.13,4.62,7.87,11.13,14.47,17.58,20.99,3.01,3.04,6.55,6.31,10.87,6.19,3.43-.1,6.36-2.34,8.96-4.54,15.02-12.68,29.05-28.9,30.47-48.31.24-3.34.07-6.84-1.53-9.8-4.03-7.48-15.45-8-22.72-3.46-7.27,4.54-11.55,12.37-16.08,19.57-.79,1.25-2.02,2.66-3.46,2.27-.73-.2-1.24-.83-1.69-1.43-2.1-2.82-4.02-5.85-6.75-8.09-2.73-2.24-6.55-3.6-9.9-2.42-3.7,1.3-5.8,5.4-5.82,9.26-.02,3.86,1.63,7.54,3.44,10.96,3,5.67,6.55,11.06,10.59,16.08,3,3.72,6.64,7.45,11.41,8.26,5.38.91,10.61-2.17,14.77-5.64,6.79-5.67,12.35-12.76,16.17-20.67,2.59-5.36,4.42-11.23,4.08-17.16-.21-3.6-1.53-7.53-4.78-9.19-2.82-1.43-6.38-.7-9.02,1.03s-4.57,4.31-6.43,6.83c-2.68,3.62-5.36,7.24-8.03,10.86-1.96,2.65-4.24,5.51-7.53,6.09-5.9,1.04-9.88-5.46-14.56-9.13-.63-.5-1.35-.97-2.16-1.01-2.47-.12-3.2,3.29-2.81,5.69,1.35,8.22,5.61,15.96,11.88,21.57,2.32,2.08,5.14,3.95,8.28,3.98,2.17.02,4.25-.85,6.17-1.84,11.89-6.09,20.72-17.63,23.39-30.54.41-1.97.67-4.08-.11-5.94-.77-1.86-2.9-3.32-4.86-2.71-1.23.38-2.09,1.44-2.85,2.46-2.73,3.63-5.2,7.44-7.41,11.4-2.87,5.15-5.96,11.12-11.75,12.57-5.91,1.49-11.67-2.5-16.43-6.25-2.57,5.56,1.39,12.58,7.22,14.72,5.83,2.14,12.57.22,17.53-3.47,4.95-3.7,8.44-8.94,11.65-14.17.94-1.54,1.9-3.21,1.76-4.99s-1.92-3.54-3.65-2.98c-2.23,6.75-4.72,13.77-10.03,18.58-5.31,4.8-14.36,6.4-9.15-15.42Z"/><path class="cls-1" d="m82.35,4.61c-1.25,23.44-1.61,46.94-1.07,70.41.06,2.81.19,5.79,1.61,8.13.99,1.63,2.59,2.77,4.14,3.73,10.77,6.7,23.82,5.25,36.16,5.68,12.64.44,25.19-1.73,37.84-1.73,14.84,0,29.28,1.32,43.85-.19,2.21-27.87,2.52-55.93.91-83.86-.06-1.04-.13-2.12-.62-3.01-.77-1.42-2.37-2-3.84-2.35-6.39-1.51-13.01-.83-19.53-.41-30.46,1.97-61.02-1.78-99.45,3.59Z"/><path class="cls-1" d="m227.21,81.35c-1.19-2.49-3.99-3.91-6.49-3.3-1.28.31-2.43,1.09-3.45,1.98-2.48,2.17-4.37,5.13-5.36,8.43-.41,1.35-.67,2.77-.57,4.18.19,2.67,1.72,5.09,3.74,6.59,2.02,1.5,4.49,2.16,6.93,2.27,1.76.08,3.59-.12,5.16-1.01,1.24-.71,2.26-1.82,3.03-3.1,1.85-3.06,2.25-7.11,1.04-10.53s-4.01-6.11-7.26-6.99c-1.59-.43-3.35-.43-4.8.41-1.88,1.09-2.93,3.35-3.54,5.58-.91,3.33-.84,7.54,1.74,9.57,1.66,1.31,3.89,1.31,5.91.96,1.42-.25,2.86-.67,4.05-1.56,1.19-.89,2.12-2.32,2.18-3.9.07-1.73-.88-3.34-2.08-4.47-1.26-1.19-2.88-1.98-4.54-1.94s-3.34,1.03-4.07,2.66c-.41.9-.52,1.93-.51,2.94.02,1.97.86,4.32,2.65,4.57,1.76.24,3.19-2.02,2.81-3.92-.21-1.09-1.01-2.14-2.03-2.15s-1.85,1.5-1.14,2.3"/><path class="cls-1" d="m111.12,83.66c-2.64-1.9-6.33-1.86-8.93.1-2.6,1.96-3.91,5.48-4.21,8.91-.18,2.12,0,4.39,1.1,6.14,1.09,1.73,2.92,2.73,4.75,3.39,3.62,1.31,7.64,1.54,11.23.12,1.55-.62,3.06-1.59,3.94-3.13.66-1.16.91-2.55.97-3.92.17-3.58-.91-7.31-3.24-9.83-2.45-2.64-6.26-3.75-9.51-2.52s-5.68,4.84-5.55,8.6c.03.9.2,1.81.6,2.6.42.83,1.08,1.48,1.77,2.06,2.4,1.99,5.63,3.11,8.47,2.03,2.85-1.08,4.83-4.89,3.53-7.86-.63-1.44-1.85-2.45-3.12-3.22-2.02-1.24-4.79-1.93-6.48-.2-.51.52-.86,1.22-1.08,1.94-.5,1.6-.42,3.45.4,4.88s2.44,2.32,3.95,1.99,2.73-2.01,2.5-3.68c-.14-1.02-.85-1.97-1.78-2.1s-1.91.83.69-6.31Z"/><path class="cls-1" d="m225.41,40.23c.17,5.06.34,10.12.52,15.18.03.92.09,1.92.65,2.61.44.54,1.1.77,1.75.93,1.86.45,3.78.39,5.68.33,2.73-.08,5.45-.17,8.18-.25.5-.02,1.04-.05,1.41-.42.71-.73.18-2.02-.38-2.9-3.49-5.46-6.98-10.91-10.47-16.37-.73-1.14-1.54-2.34-2.74-2.77-.71-.25-1.47-.2-2.21-.15-.77.06-1.6.13-2.21.65s-.21,1.47-.16,3.15Z"/><path class="cls-1" d="m207.01,33.96c8.33-.22,16.67.18,24.95,1.19.51.06,1.03.13,1.5.36.83.4,1.4,1.25,1.94,2.06,3.63,5.54,7.25,11.08,10.88,16.61.43.66.88,1.33,1.53,1.71.45.26.96.36,1.47.45,2.59.48,5.19.95,7.78,1.43.18,10.38-.02,20.76-.58,31.12-.03.59-.09,1.23-.47,1.64-.4.44-1.03.48-1.59.49-16.51.39-33.03.27-49.54-.37"/><path class="cls-1" d="m70.06,32.63c-3.59-.45-7.32,1.63-10.74.35-3.53-1.32-6.41-6.06-9.93-4.68-3.3,1.29-4,7.27-7.49,7.54-2.23.17-3.8-2.22-5.44-3.89-4.59-4.66-11.72-4.37-17.84-2.92-6.12,1.45-12.4,3.77-18.49,2.18"/><path class="cls-1" d="m70.07,47.95c-4.45-.24-8.72,1.8-13.12,2.57-3.09.53-6.23.44-9.36.34-1.78-.06-3.56-.11-5.34-.17-2.6-.08-5.2-.16-7.79-.49-3.72-.46-7.49-1.41-11.17-.64"/><path class="cls-1" d="m73.42,63.83c-2-1.32-4.62-1.42-6.7-.27-.38.21-.84.46-1.21.23-.19-.12-.3-.34-.43-.53-1.01-1.46-3.07-1.02-4.68-.51-4.65,1.46-9.48,2.25-14.32,2.34"/></g></svg>