<?xml version="1.0" encoding="UTF-8"?><svg id="Layer_2" xmlns="http://www.w3.org/2000/svg" width="131" height="131.59" viewBox="0 0 131 131.59"><defs><style>.cls-1{fill:none;stroke:#593921;stroke-miterlimit:10;}</style></defs><g id="Layer_1-2"><path class="cls-1" d="m43.3,129.87c-.42.03-1.97-.2-2.38-.29-19.61-4.35-34.25-24-36.94-44.27-.61-4.6-.55-9.44,1.29-13.69.48-1.11,1.33-2.32,2.52-2.25,1.34.07,3.41,2.6,3.78,3.92,1.25,4.47,1.85,6.99,3.1,11.46.82,2.95,2.66,6.19,4.18,8.84,3.01,5.26,3.21,6.93,8.2,10.29,2.34,1.58,5.71,2.99,8.77,1.72,2.19-.91,4.42-4.69,3.06-7.66s-1.87-7.46,1.14-8.63c2.05-.8,4.26.72,5.75,2.36,5.29,5.81,7.35,13.89,8.62,21.7.45,2.78.83,5.63.29,8.39-.54,2.76-2.16,5.45-4.71,6.54-2.74,1.18-4.09,1.37-6.67,1.58Z"/><path class="cls-1" d="m68.2,129.57c6.96,4.77,20.59-2.65,28.65-8.75,13.08-9.89,23.98-24.39,22.65-40.05-.13-1.58-.42-3.22-1.44-4.48s-2.95-2.02-4.47-1.31c-.96.45-1.56,1.37-2.04,2.27-2.44,4.59-3.13,9.82-5.31,14.52-3.8,8.15-12.32,14.22-21.75,15.49-.62.08-1.27.14-1.84-.11-.82-.37-1.18-1.3-1.23-2.15-.11-2.15,1.23-4.1,1.99-6.13.76-2.03.68-4.77-1.36-5.78-1.5-.75-3.44-.15-4.64.98s-1.82,2.66-2.41,4.14c-2.64,6.64-5.28,13.28-7.92,19.92-1.07,2.7-2.16,5.64-1.28,8.4s4.46,4.31,2.38,3.04Z"/><path class="cls-1" d="m57.86,39.86c-3.57-8.7-7.28-17.63-13.79-24.44-6.5-6.81-16.53-11.13-25.52-8.29C9.47,10.01,3.82,19.3,1.73,28.57c-3.57,15.84,1,32.63,9.13,46.69,8.13,14.06,19.6,25.87,30.94,37.51,5.3,5.44,11.54,11.28,19.14,11.06,1.51-.04,2.96-.33,4.37-.79,4.21-1.39,7.97-4.38,11.41-7.33,3.08-2.64,6.14-5.37,9.14-8.18.23-.21.45-.42.68-.64,22.47-21.2,41.63-47.18,43.81-77.51.43-5.97.12-12.23-2.69-17.52-7.1-13.36-27.2-14.3-40-6.18s-20.32,22.11-28.3,34.97c-1.38,2.23-3.56,4.76-6.09,4.05-1.29-.36-2.19-1.49-2.98-2.56-3.7-5.04-7.07-10.45-11.88-14.46s-11.53-6.43-17.43-4.32c-6.52,2.33-10.2,9.64-10.24,16.55-.03,6.9,2.86,13.47,6.06,19.59,5.28,10.14,11.53,19.77,18.64,28.73,5.28,6.66,11.69,13.32,20.08,14.76,7.01,1.2,13.87-1.5,19.94-5.5,2.13-1.4,4.15-2.97,6.06-4.58,11.96-10.13,21.73-22.81,28.47-36.93,4.57-9.58,7.78-20.07,7.17-30.66-.37-6.43-2.69-13.46-8.42-16.41-4.97-2.56-11.23-1.25-15.88,1.84-4.65,3.09-8.04,7.7-11.32,12.21-4.71,6.47-9.43,12.94-14.14,19.41-3.45,4.74-7.47,9.84-13.25,10.88-10.39,1.86-17.39-9.75-25.63-16.32-1.12-.89-2.38-1.73-3.81-1.81-4.35-.22-5.64,5.88-4.94,10.17,2.38,14.69,9.88,28.52,20.91,38.54,4.09,3.72,9.04,7.06,14.58,7.11,3.82.03,7.47-1.52,10.86-3.28,20.92-10.89,36.48-31.51,41.17-54.57.72-3.52,1.17-7.29-.19-10.62s-5.11-5.93-8.55-4.85c-2.16.68-3.68,2.57-5.02,4.39-4.8,6.49-9.16,13.3-13.04,20.38-5.04,9.2-10.49,19.87-20.68,22.47-10.41,2.66-20.54-4.47-28.92-11.17-4.52,9.95,2.45,22.49,12.71,26.32,10.26,3.83,22.13.4,30.85-6.2,8.72-6.61,14.85-15.98,20.5-25.33,1.66-2.74,3.34-5.73,3.1-8.93-.24-3.19-3.38-6.33-6.43-5.33-3.92,12.05-8.3,24.62-17.65,33.2s-25.28,11.44-16.11-27.55Z"/></g></svg>