<?xml version="1.0" encoding="UTF-8"?><svg id="Layer_2" xmlns="http://www.w3.org/2000/svg" width="184.22" height="22.83" viewBox="0 0 184.22 22.83"><defs><style>.cls-1{fill:none;stroke:#fff;stroke-linecap:round;stroke-width:2px;}</style></defs><g id="Layer_1-2"><path class="cls-1" d="m1,6.57c7.08,0,13.48.01,20.19-1.48,1.28-.29,2.55-1.57,3.73-1.57.15,0-1.1-.04-1.4.04-.62.18-.59,1.66-.25,2.07,1.49,1.86,5.1,3.85,7.45,3.98,4.19.23,9.03.51,12.91-1.19,1.19-.52,7.38-6.35,6.52-6.35-.62,0-.48,3.56-.34,4.06.65,2.29,2.94,4.02,5.12,4.83,8.47,3.14,19.36.17,28.19.17,4.46,0,5.5,4.19,5.5,8,0,2.66-3.31,2.78-5.33,2.67-2.64-.15-3.09-2.93-3.81-4.91-4.99-13.72,13.03-19.14,22.86-13.97,3.53,1.86,13.3,4.46,16.34.59,2.19-2.79,1.04-2.53.25,1.1-.43,1.99-1.98,8.16,1.36,8.76,10.49,1.91,21.54-4.53,32.17-4.53,5.28,0,9.18-.05,13.88,1.52"/><path class="cls-1" d="m163.29,1.23c5.12,0,9.56,3.98,14.14,5.29,1.02.29,8.78,1.2,4.53,3.09-3.5,1.56-5.95,5.33-9.52,7.03-3.34,1.58-5.62,3.99-9.14,5.16"/></g></svg>