<?xml version="1.0" encoding="UTF-8"?><svg id="Layer_2" xmlns="http://www.w3.org/2000/svg" width="64" height="65" viewBox="0 0 64 65"><defs><style>.cls-1{fill:#fff;stroke-width:0px;}</style></defs><g id="Layer_1-2"><path class="cls-1" d="m35.95,21.18c1.29,0,2.66.41,2.66.41l.83-4.98s-1.75-.61-5.93-.61c-2.56,0-4.05.99-5.14,2.45-1.03,1.38-1.06,3.61-1.06,5.04v3.26h-3.31v4.86h3.31v16.88h6.2v-16.88h4.91l.36-4.86h-5.28v-3.8c0-1.31,1.15-1.78,2.44-1.78Z"/><path class="cls-1" d="m32,0C14.32,0,0,14.55,0,32.5s14.32,32.5,32,32.5,32-14.55,32-32.5S49.68,0,32,0Zm19.98,52.77c-2.6,2.64-5.61,4.71-8.98,6.14-3.47,1.5-7.18,2.25-11,2.25s-7.51-.76-11-2.25c-3.36-1.45-6.39-3.52-8.97-6.14-2.6-2.64-4.64-5.7-6.05-9.12-1.47-3.53-2.22-7.29-2.22-11.16s.75-7.63,2.21-11.17c1.42-3.42,3.46-6.49,6.05-9.12,2.61-2.64,5.63-4.71,8.99-6.16,3.49-1.49,7.19-2.25,11-2.25s7.51.76,11,2.25c3.36,1.45,6.39,3.52,8.98,6.14,2.6,2.64,4.64,5.7,6.05,9.12,1.48,3.53,2.21,7.29,2.21,11.17s-.75,7.63-2.21,11.17c-1.42,3.42-3.46,6.49-6.05,9.12Z"/></g></svg>