<?xml version="1.0" encoding="UTF-8"?><svg id="Layer_2" xmlns="http://www.w3.org/2000/svg" width="300" height="15" viewBox="0 0 300 15"><defs><style>.cls-1{fill:none;stroke:#ede1d8;stroke-linecap:round;stroke-width:2px;}</style></defs><g id="Layer_1-2"><path class="cls-1" d="m299,6.99c-4.51,0-8.68,1.91-13.17,1.91-3.25,0-12.47-2.12-14.08-4.1-2.88-3.53-13.42-2.53-17.21-.71-4.88,2.35.13,7.99-6.86,7.99-6.57,0-10.17-.09-14.99-3.47-3.28-2.29-4.59-5.6-7.47-7.21-1.53-.86-8.09-.21-9.59.64-2.01,1.13-3.71,2.62-5.86,3.68-7.6,3.75-16.32,8.21-26.15,4.95-2.42-.8-7.54-1-9.99-.14-3.71,1.3-4.46,3.83-9.03,3.43-9.09-.8-9.19-19.96-18.68-9.23-3.27,3.7-9.85,5.16-15.9,4.77-4.3-.27-11.94-4.95-15.9-3.71-3.58,1.12-2.26,3.75-6.86,3.75-8.67,0-15.95-1.46-23.52-4.74-5.09-2.2-8.08-3.54-13.88-3.54-5.49,0-9.47,1.32-14.13,3.18-6.29,2.52-17.53.05-22.01,3.18-3.03,2.12-8.29-.11-10.7,1.41-2.24,1.41-4.36,1.13-7.47,1.13H1"/></g></svg>