<?xml version="1.0" encoding="UTF-8"?><svg id="Layer_2" xmlns="http://www.w3.org/2000/svg" width="64.5" height="64.5" viewBox="0 0 64.5 64.5"><defs><style>.cls-1{fill:#fff;stroke-width:0px;}</style></defs><g id="Layer_1-2"><path class="cls-1" d="m32.25,17.47c-2.92,0-5.78.87-8.21,2.49-2.43,1.62-4.33,3.93-5.44,6.63-1.12,2.7-1.41,5.67-.84,8.54.57,2.87,1.98,5.5,4.05,7.57s4.7,3.47,7.57,4.05c2.87.57,5.84.28,8.54-.84,2.7-1.12,5.01-3.01,6.63-5.44,1.62-2.43,2.49-5.29,2.49-8.21,0-3.92-1.56-7.68-4.33-10.45-2.77-2.77-6.53-4.33-10.45-4.33Zm0,26.88c-2.39,0-4.73-.71-6.72-2.04s-3.54-3.22-4.45-5.43c-.92-2.21-1.15-4.64-.69-6.99.47-2.35,1.62-4.5,3.31-6.19,1.69-1.69,3.85-2.84,6.19-3.31,2.35-.47,4.78-.23,6.99.69,2.21.92,4.1,2.47,5.43,4.45s2.04,4.33,2.04,6.72c0,3.21-1.28,6.28-3.55,8.55-2.27,2.27-5.34,3.54-8.55,3.55ZM47.03,0h-29.56c-4.63,0-9.07,1.85-12.35,5.12C1.85,8.4,0,12.84,0,17.47v29.56c0,4.63,1.85,9.07,5.12,12.35,3.27,3.27,7.72,5.12,12.35,5.12h29.56c4.63,0,9.07-1.85,12.35-5.12,3.27-3.27,5.12-7.72,5.12-12.35v-29.56c0-4.63-1.85-9.07-5.12-12.35C56.1,1.85,51.66,0,47.03,0Zm14.78,47.03c0,3.92-1.56,7.68-4.33,10.45-2.77,2.77-6.53,4.33-10.45,4.33h-29.56c-3.92,0-7.68-1.56-10.45-4.33-2.77-2.77-4.33-6.53-4.33-10.45v-29.56c0-3.92,1.56-7.68,4.33-10.45,2.77-2.77,6.53-4.33,10.45-4.33h29.56c3.92,0,7.68,1.56,10.45,4.33,2.77,2.77,4.33,6.53,4.33,10.45v29.56Zm-9.41-32.25c0,.53-.16,1.05-.45,1.49-.3.44-.72.79-1.21.99s-1.03.26-1.55.15c-.52-.1-1-.36-1.38-.74s-.63-.85-.74-1.38c-.1-.52-.05-1.06.15-1.55.2-.49.55-.91.99-1.21.44-.3.96-.45,1.49-.45.71,0,1.4.28,1.9.79.5.5.79,1.19.79,1.9Z"/></g></svg>