<?xml version="1.0" encoding="UTF-8"?><svg id="Layer_2" xmlns="http://www.w3.org/2000/svg" width="15" height="416" viewBox="0 0 15 416"><defs><style>.cls-1{fill:none;stroke:#ede1d8;stroke-linecap:round;stroke-width:2px;}</style></defs><g id="Layer_1-2"><path class="cls-1" d="m6.99,1c0,6.26,1.91,12.06,1.91,18.3,0,4.52-2.12,17.32-4.1,19.56-3.53,4-2.53,18.65-.71,23.91,2.35,6.79,7.99-.18,7.99,9.54,0,9.12-.09,14.13-3.47,20.83-2.29,4.55-5.6,6.38-7.21,10.38-.86,2.13-.21,11.24.64,13.32,1.13,2.8,2.62,5.16,3.68,8.13,3.75,10.55,8.21,22.67,4.95,36.32-.8,3.36-1,10.48-.14,13.88,1.3,5.15,3.83,6.2,3.43,12.55-.8,12.63-19.96,12.77-9.23,25.94,3.7,4.54,5.16,13.68,4.77,22.09-.27,5.98-4.95,16.59-3.71,22.09,1.12,4.98,3.75,3.13,3.75,9.54,0,12.05-1.46,22.16-4.74,32.68-2.2,7.07-3.54,11.23-3.54,19.28,0,7.63,1.32,13.16,3.18,19.63,2.52,8.74.05,24.36,3.18,30.57,2.12,4.21-.11,11.51,1.41,14.87,1.41,3.11,1.13,6.06,1.13,10.38v20.2"/></g></svg>