<?xml version="1.0" encoding="UTF-8"?><svg id="Layer_2" xmlns="http://www.w3.org/2000/svg" width="199.78" height="47.56" viewBox="0 0 199.78 47.56"><defs><style>.cls-1{fill:#593921;stroke-width:0px;}</style></defs><g id="Layer_1-2"><path class="cls-1" d="m1.38,4.74l.06,2.55v15.48H0V1.14h.66l14.13,16.29c.96,1.14,1.7,2.05,2.22,2.73-.08-.96-.12-2.06-.12-3.3V1.32h1.44v21.63h-.66L3.27,6.36c-1-1.14-1.64-1.9-1.92-2.28l.03.66Zm24.87,18.03V1.32h1.44v21.45h-1.44Zm10.73-18.03l.06,2.55v15.48h-1.44V1.14h.66l14.13,16.29c.96,1.14,1.7,2.05,2.22,2.73-.08-.96-.12-2.06-.12-3.3V1.32h1.44v21.63h-.66l-14.4-16.59c-1-1.14-1.64-1.9-1.92-2.28l.03.66Zm26.01,10.59l-3.09,7.44h-1.53L67.4,1.17h.84l9.06,21.6h-1.62l-3.09-7.44h-9.6Zm4.74-11.76s-.06.14-.12.36c-.28.86-.55,1.59-.81,2.19l-3.3,7.98h8.58l-3.3-7.95c-.7-1.52-1.05-2.38-1.05-2.58Zm24.82,19.2V1.41c1.9-.14,3.49-.21,4.77-.21,2.04,0,3.72.53,5.04,1.59,1.32,1.04,1.98,2.52,1.98,4.44,0,1.3-.38,2.51-1.14,3.63-.76,1.12-1.61,2.01-2.55,2.67.74,1.02,1.65,2.24,2.73,3.66,1.1,1.4,1.81,2.28,2.13,2.64,1.22,1.3,2.6,2.04,4.14,2.22l-.03.96c-1.22-.02-2.21-.2-2.97-.54-.76-.36-1.49-.9-2.19-1.62-.68-.72-2.39-2.96-5.13-6.72-1.96,0-3.74-.06-5.34-.18v8.82h-1.44Zm5.91-9.84c.88,0,1.82-.58,2.82-1.74s1.5-2.5,1.5-4.02-.52-2.7-1.56-3.48c-1.02-.8-2.38-1.2-4.08-1.2-.9,0-1.95.04-3.15.12v10.17c1.6.1,3.09.15,4.47.15Zm12.58-.9c0-3.12.99-5.74,2.97-7.86,2-2.14,4.52-3.21,7.56-3.21,2.14,0,4.06.57,5.76,1.71l1.83-2.67.96.69-1.83,2.67c1.22,1.02,2.16,2.28,2.82,3.78.68,1.5,1.02,3.13,1.02,4.89,0,3.12-1,5.75-3,7.89-2,2.14-4.52,3.21-7.56,3.21-2.14,0-4.06-.57-5.76-1.71l-1.8,2.61-.96-.66,1.83-2.64c-1.22-1.04-2.17-2.31-2.85-3.81-.66-1.5-.99-3.13-.99-4.89Zm19.53,0c0-3.12-1.03-5.63-3.09-7.53l-10.89,15.81c1.44,1,3.1,1.5,4.98,1.5,2.66,0,4.82-.94,6.48-2.82,1.68-1.88,2.52-4.2,2.52-6.96Zm-9-9.75c-2.66,0-4.82.94-6.48,2.82-1.66,1.86-2.49,4.26-2.49,7.2s1.02,5.34,3.06,7.26l10.89-15.78c-1.44-1-3.1-1.5-4.98-1.5Zm18.59,2.46l.06,2.55v15.48h-1.44V1.14h.66l14.13,16.29c.96,1.14,1.7,2.05,2.22,2.73-.08-.96-.12-2.06-.12-3.3V1.32h1.44v21.63h-.66l-14.4-16.59c-1-1.14-1.64-1.9-1.92-2.28l.03.66Zm31.74,16.98c2.82,0,5.08-.76,6.78-2.28,1.72-1.54,2.58-3.85,2.58-6.93s-.97-5.53-2.91-7.35c-1.92-1.82-4.3-2.73-7.14-2.73-1.82,0-3.4.05-4.74.15v18.9c1.3.16,3.11.24,5.43.24Zm-.69-20.61c3.3,0,6.06,1.03,8.28,3.09,2.22,2.04,3.33,4.82,3.33,8.34,0,1.78-.29,3.36-.87,4.74-.56,1.36-1.34,2.45-2.34,3.27-2.06,1.66-4.63,2.49-7.71,2.49-2.02,0-4.31-.11-6.87-.33V1.32c2.04-.14,4.1-.21,6.18-.21Zm18.28,21.66V1.32h9.96v1.26h-8.52v7.89h7.71v1.23h-7.71v9.81h8.85v1.26h-10.29Z"/><path class="cls-1" d="m63.81,41.09v-13.33h1.01v12.66c0,1.88-.39,3.37-1.18,4.49-.39.57-.79,1.05-1.2,1.43-.41.39-.9.8-1.49,1.22l-.44-.65c2.2-1.61,3.3-3.55,3.3-5.82Zm6.29,1.68v-13.63h6.36v.84h-5.4v4.96h4.87v.82h-4.87v6.13h5.61v.88h-6.57Zm13.9-3.32l3.93-10.04h.61l3.42,10.1.5,1.7c.04-.27.22-.83.53-1.68l3.49-10.4h1.01l-4.75,13.71h-.57c-2.34-6.71-3.55-10.19-3.63-10.46-.13-.38-.25-.75-.38-1.11-.07.24-.26.74-.57,1.49l-3.97,10.08h-.57l-4.79-13.71h1.07l3.47,10.23c.2.56.38,1.18.55,1.87.07-.28.29-.88.65-1.78Zm16.26,3.32v-13.63h6.36v.84h-5.4v4.96h4.87v.82h-4.87v6.13h5.61v.88h-6.57Zm10.44,0v-13.63h.97v12.75h6.26v.88h-7.22Zm10.09,0v-13.57c1.2-.1,2.23-.15,3.07-.15,1.29,0,2.35.34,3.19,1.01.84.66,1.26,1.6,1.26,2.84,0,.83-.24,1.59-.71,2.29-.48.7-1.01,1.27-1.62,1.7,1.67,2.21,2.7,3.53,3.09,3.97.8.83,1.67,1.29,2.6,1.41l-.02.65c-.78-.01-1.42-.13-1.91-.34-.49-.22-.98-.6-1.47-1.11-.48-.52-1.53-1.91-3.17-4.18-1.13,0-2.25-.03-3.34-.1v5.59h-.97Zm3.78-6.28c.55,0,1.13-.36,1.76-1.09.63-.73.95-1.58.95-2.54s-.33-1.7-.99-2.21c-.66-.5-1.51-.76-2.56-.76-.56,0-1.22.03-1.97.08v6.41c1.01.07,1.95.1,2.81.1Zm12.02,6.28h-.95v-4.87l-5.14-8.76h1.15l3.97,6.76c.31.62.48.94.53.99.08-.18.26-.5.52-.97l3.97-6.78h1.09l-5.15,8.8v4.83Z"/></g></svg>