<?xml version="1.0" encoding="UTF-8"?><svg id="Layer_2" xmlns="http://www.w3.org/2000/svg" width="149.96" height="45.71" viewBox="0 0 149.96 45.71"><defs><style>.cls-1{fill:#593921;stroke-width:0px;}</style></defs><g id="Layer_1-2"><path class="cls-1" d="m4.47,3.48l.04,1.87v11.35h-1.06V.84h.48l10.36,11.95c.7.84,1.25,1.5,1.63,2-.06-.7-.09-1.51-.09-2.42V.97h1.06v15.86h-.48L5.85,4.66c-.73-.84-1.2-1.39-1.41-1.67l.02.48Zm18.24,13.22V.97h1.06v15.73h-1.06Zm7.87-13.22l.04,1.87v11.35h-1.06V.84h.48l10.36,11.95c.7.84,1.25,1.5,1.63,2-.06-.7-.09-1.51-.09-2.42V.97h1.06v15.86h-.48l-10.56-12.17c-.73-.84-1.2-1.39-1.41-1.67l.02.48Zm19.07,7.77l-2.27,5.46h-1.12L52.88.86h.62l6.64,15.84h-1.19l-2.27-5.46h-7.04Zm3.48-8.62s-.04.1-.09.26c-.21.63-.4,1.17-.59,1.61l-2.42,5.85h6.29l-2.42-5.83c-.51-1.11-.77-1.75-.77-1.89Zm18.2,14.08V1.03c1.39-.1,2.56-.15,3.5-.15,1.5,0,2.73.39,3.7,1.17.97.76,1.45,1.85,1.45,3.26,0,.95-.28,1.84-.84,2.66-.56.82-1.18,1.47-1.87,1.96.54.75,1.21,1.64,2,2.68.81,1.03,1.33,1.67,1.56,1.94.89.95,1.91,1.5,3.04,1.63l-.02.7c-.89-.01-1.62-.15-2.18-.4-.56-.26-1.09-.66-1.61-1.19-.5-.53-1.75-2.17-3.76-4.93-1.44,0-2.74-.04-3.92-.13v6.47h-1.06Zm4.33-7.22c.65,0,1.33-.43,2.07-1.28.73-.85,1.1-1.83,1.1-2.95s-.38-1.98-1.14-2.55c-.75-.59-1.75-.88-2.99-.88-.66,0-1.43.03-2.31.09v7.46c1.17.07,2.27.11,3.28.11Zm9.22-.66c0-2.29.73-4.21,2.18-5.76,1.47-1.57,3.31-2.35,5.54-2.35,1.57,0,2.98.42,4.22,1.25l1.34-1.96.7.51-1.34,1.96c.89.75,1.58,1.67,2.07,2.77.5,1.1.75,2.3.75,3.59,0,2.29-.73,4.22-2.2,5.79-1.47,1.57-3.31,2.35-5.54,2.35-1.57,0-2.98-.42-4.22-1.25l-1.32,1.91-.7-.48,1.34-1.94c-.89-.76-1.59-1.69-2.09-2.79-.48-1.1-.73-2.3-.73-3.59Zm14.32,0c0-2.29-.76-4.13-2.27-5.52l-7.99,11.59c1.06.73,2.27,1.1,3.65,1.1,1.95,0,3.53-.69,4.75-2.07,1.23-1.38,1.85-3.08,1.85-5.1Zm-6.6-7.15c-1.95,0-3.53.69-4.75,2.07-1.22,1.36-1.83,3.12-1.83,5.28s.75,3.92,2.24,5.32l7.99-11.57c-1.06-.73-2.27-1.1-3.65-1.1Zm13.64,1.8l.04,1.87v11.35h-1.06V.84h.48l10.36,11.95c.7.84,1.25,1.5,1.63,2-.06-.7-.09-1.51-.09-2.42V.97h1.06v15.86h-.48l-10.56-12.17c-.73-.84-1.2-1.39-1.41-1.67l.02.48Zm23.28,12.45c2.07,0,3.73-.56,4.97-1.67,1.26-1.13,1.89-2.82,1.89-5.08s-.71-4.06-2.13-5.39c-1.41-1.33-3.15-2-5.24-2-1.33,0-2.49.04-3.48.11v13.86c.95.12,2.28.18,3.98.18Zm-.51-15.11c2.42,0,4.44.76,6.07,2.27,1.63,1.5,2.44,3.53,2.44,6.12,0,1.31-.21,2.46-.64,3.48-.41,1-.98,1.8-1.72,2.4-1.51,1.22-3.4,1.83-5.65,1.83-1.48,0-3.16-.08-5.04-.24V.97c1.5-.1,3.01-.15,4.53-.15Zm13.41,15.88V.97h7.3v.92h-6.25v5.79h5.65v.9h-5.65v7.19h6.49v.92h-7.55ZM3.45,38.94v-13.97h1.06v13.27c0,1.97-.41,3.53-1.23,4.71-.41.6-.83,1.1-1.25,1.5-.43.41-.95.84-1.56,1.28l-.46-.68c2.3-1.69,3.45-3.72,3.45-6.09Zm6.59,1.76v-14.28h6.67v.88h-5.65v5.19h5.1v.86h-5.1v6.42h5.87v.92h-6.89Zm14.57-3.48l4.11-10.52h.64l3.59,10.58.53,1.78c.04-.28.23-.87.55-1.76l3.65-10.89h1.06l-4.97,14.37h-.59c-2.45-7.03-3.72-10.68-3.81-10.96-.13-.4-.26-.78-.4-1.17-.07.25-.27.77-.59,1.56l-4.16,10.56h-.59l-5.02-14.37h1.12l3.63,10.71c.21.59.4,1.24.57,1.96.07-.29.3-.92.68-1.87Zm17.04,3.48v-14.28h6.67v.88h-5.65v5.19h5.1v.86h-5.1v6.42h5.87v.92h-6.89Zm10.94,0v-14.28h1.01v13.35h6.56v.92h-7.57Zm10.57,0v-14.21c1.26-.1,2.33-.15,3.21-.15,1.35,0,2.46.35,3.34,1.06.88.69,1.32,1.68,1.32,2.97,0,.87-.25,1.66-.75,2.4-.5.73-1.06,1.33-1.69,1.78,1.75,2.32,2.82,3.7,3.23,4.16.84.87,1.75,1.36,2.73,1.47l-.02.68c-.82-.01-1.49-.13-2-.35-.51-.23-1.03-.62-1.54-1.17-.5-.54-1.61-2-3.32-4.38-1.19,0-2.35-.04-3.5-.11v5.85h-1.01Zm3.96-6.58c.57,0,1.19-.38,1.85-1.14.66-.76.99-1.65.99-2.66s-.34-1.78-1.03-2.31-1.58-.79-2.68-.79c-.59,0-1.28.03-2.07.09v6.71c1.06.07,2.04.11,2.95.11Zm12.59,6.58h-.99v-5.1l-5.39-9.17h1.21l4.16,7.08c.32.65.51.99.55,1.03.09-.19.27-.53.55-1.01l4.16-7.11h1.14l-5.39,9.22v5.06Z"/></g></svg>