<?xml version="1.0" encoding="UTF-8"?><svg id="Layer_2" xmlns="http://www.w3.org/2000/svg" width="29" height="25.9" viewBox="0 0 29 25.9"><defs><style>.cls-1{fill:#593921;stroke-width:0px;}</style></defs><g id="Layer_1-2"><path class="cls-1" d="m15.72,6.79h-7.33c-.25,0-.46.21-.46.46s.21.46.46.46h7.33c.25,0,.46-.21.46-.46,0-.25-.2-.46-.46-.46Z"/><path class="cls-1" d="m20.61,6.79h-2.44c-.25,0-.46.21-.46.46s.21.46.46.46h2.44c.25,0,.46-.21.46-.46,0-.25-.2-.46-.46-.46Z"/><path class="cls-1" d="m12.06,9.23h-3.66c-.25,0-.46.21-.46.46s.21.46.46.46h3.66c.25,0,.46-.2.46-.46s-.2-.46-.46-.46Z"/><path class="cls-1" d="m15.72,9.23h-1.22c-.25,0-.46.21-.46.46s.21.46.46.46h1.22c.25,0,.46-.2.46-.46s-.2-.46-.46-.46Z"/><path class="cls-1" d="m20.61,9.23h-2.44c-.25,0-.46.21-.46.46s.21.46.46.46h2.44c.25,0,.46-.2.46-.46,0-.25-.2-.46-.46-.46Z"/><path class="cls-1" d="m20.61,11.67h-6.11c-.25,0-.46.21-.46.46s.21.46.46.46h6.11c.25,0,.46-.21.46-.46s-.2-.46-.46-.46Z"/><path class="cls-1" d="m12.06,11.67h-3.66c-.25,0-.46.21-.46.46s.21.46.46.46h3.66c.25,0,.46-.2.46-.46s-.2-.46-.46-.46Z"/><path class="cls-1" d="m28.81,9.83h0s-4.08-2.94-4.08-2.94v-.95c0-1.62-1.3-2.94-2.9-2.94h-1.69l-3.56-2.38c-1.26-.84-2.88-.84-4.14,0l-3.56,2.38h-1.69c-1.6,0-2.9,1.32-2.9,2.94v.95L.19,9.83h0c-.12.09-.19.22-.19.37v12.8c0,1.6,1.3,2.9,2.9,2.9h23.2c1.6,0,2.9-1.3,2.9-2.9v-12.8c0-.15-.07-.29-.19-.37Zm-4.08-1.82l3.03,2.18-3.03,2.13v-4.31ZM5.19,5.94c0-1.1.91-2.02,1.98-2.02h7.66c.25,0,.46-.21.46-.46s-.2-.46-.46-.46h-4.31l2.42-1.61c.95-.63,2.18-.63,3.13,0l2.42,1.61h-1.63c-.25,0-.46.21-.46.46s.2.46.46.46h3.14s0,0,0,0c0,0,0,0,0,0h1.83c1.08,0,1.98.93,1.98,2.02v7.03l-5.81,4.09-2.24-1.15c-.78-.46-1.74-.46-2.51,0l-2.24,1.15-5.81-4.09v-7.03Zm-.92,2.08v4.31l-3.03-2.13,3.03-2.18Zm-3.36,3.07l9.17,6.45L.92,22.25v-11.17Zm25.18,13.9H2.9c-1,0-1.83-.75-1.97-1.71l12.74-6.56s.02,0,.03-.01c.49-.3,1.11-.3,1.6,0,0,0,.02,0,.03.01l12.74,6.56c-.13.96-.96,1.71-1.97,1.71Zm1.98-2.73l-9.17-4.72,9.17-6.45v11.17Z"/></g></svg>