<?xml version="1.0" encoding="UTF-8"?><svg id="Layer_2" xmlns="http://www.w3.org/2000/svg" width="135.66" height="24.78" viewBox="0 0 135.66 24.78"><defs><style>.cls-1{fill:#ce7181;stroke-width:0px;}</style></defs><g id="Layer_1-2"><path class="cls-1" d="m67.83,0l3.08,9.47h9.95l-8.05,5.85,3.08,9.47-8.05-5.85-8.05,5.85,3.08-9.47-8.05-5.85h9.95l3.08-9.47Z"/><path class="cls-1" d="m122.63,0l3.08,9.47h9.95l-8.05,5.85,3.08,9.47-8.05-5.85-8.05,5.85,3.08-9.47-8.05-5.85h9.95l3.08-9.47Z"/><path class="cls-1" d="m13.03,0l3.08,9.47h9.95l-8.05,5.85,3.08,9.47-8.05-5.85-8.05,5.85,3.08-9.47L0,9.47h9.95L13.03,0Z"/><path class="cls-1" d="m40.43,0l3.08,9.47h9.95l-8.05,5.85,3.08,9.47-8.05-5.85-8.05,5.85,3.08-9.47-8.05-5.85h9.95l3.08-9.47Z"/><path class="cls-1" d="m95.23,0l3.08,9.47h9.95l-8.05,5.85,3.08,9.47-8.05-5.85-8.05,5.85,3.08-9.47-8.05-5.85h9.95l3.08-9.47Z"/></g></svg>